<svg xmlns="http://www.w3.org/2000/svg" height="24" width="24"><path d="M19.075 21.3Q15.65 21.3 12.5 20.1Q9.35 18.9 6.925 16.762Q4.5 14.625 3.062 11.7Q1.625 8.775 1.625 5.375Q1.625 4.225 2.263 3.45Q2.9 2.675 4.075 2.675H6.475Q7.175 2.675 7.562 3.075Q7.95 3.475 8.1 4.225Q8.275 5 8.463 5.825Q8.65 6.65 8.925 7.3Q9.15 7.85 9.062 8.325Q8.975 8.8 8.525 9.25L6.5 11.225Q7.75 13.025 9.963 14.725Q12.175 16.425 14.275 17.05L15.475 14.65Q15.725 14.175 16.075 14.012Q16.425 13.85 17.075 13.9Q17.75 13.95 18.413 13.95Q19.075 13.95 19.9 13.9Q20.675 13.85 21.212 14.312Q21.75 14.775 21.925 15.825L22.35 18.15Q22.35 18.15 22.4 18.575Q22.4 19.675 21.5 20.488Q20.6 21.3 19.075 21.3Z"/></svg>